<?xml version="1.0" encoding="UTF-8" standalone="no"?><!DOCTYPE svg PUBLIC "-//W3C//DTD SVG 1.1//EN" "http://www.w3.org/Graphics/SVG/1.1/DTD/svg11.dtd"><svg width="100%" height="100%" viewBox="0 0 1000 1000" version="1.1" xmlns="http://www.w3.org/2000/svg" xmlns:xlink="http://www.w3.org/1999/xlink" xml:space="preserve" xmlns:serif="http://www.serif.com/" style="fill-rule:evenodd;clip-rule:evenodd;stroke-linejoin:round;stroke-miterlimit:1.41421;"><g><path d="M960.918,863.816c-44.984,-69.839 -283.287,-126.428 -532.286,-126.428c-248.999,0 -414.404,56.589 -369.42,126.428c44.984,69.84 283.287,126.429 532.286,126.429c248.999,0 414.403,-56.589 369.42,-126.429Z" style="fill:#efefef;fill-opacity:0.862745;fill-rule:nonzero;"/><path d="M72.861,878.569l329.988,-320.16l181.642,124.434l41.057,-66.603l276.017,262.329l-828.704,0Z" style="fill:#0db5b5;fill-rule:nonzero;"/><path d="M399.826,560.927l-126.178,317.642l-200.787,0l326.965,-317.642Z" style="fill:#30bebc;fill-rule:nonzero;"/><path d="M650.183,734.848l-77.107,-59.595l52.466,-59.464l24.641,119.059Z" style="fill:#30bebc;fill-rule:nonzero;"/><path d="M450.434,615.967l216.27,263.405l149.422,-0.803l-197.887,-168.41l-17.004,-1.449l10.394,15.209l-60.369,-54.078l-50.003,-35.203l-50.823,-18.671Z" style="fill:#11a5a0;fill-rule:nonzero;"/><path d="M301.31,656.606l48.854,-28.105l-5.116,70.466l57.801,-140.558l-101.539,98.197Z" style="fill:#fff;fill-rule:nonzero;"/><path d="M529.193,644.9l-78.759,-28.933l-4.606,117.765l-32.799,-62.866l-8.201,23.233l-16.399,-39.633l-43.381,44.501l57.801,-140.558l126.344,86.491Z" style="fill:#edeae9;fill-rule:nonzero;"/><path d="M402.849,562.868l47.585,53.099l52.771,19.387l-93.767,-69.131l-6.589,-3.355Z" style="fill:#cfcdcc;fill-rule:nonzero;"/><path d="M411.377,152.275l-0.007,-3.509l456.423,-0.964l0.009,3.51l-456.425,0.963Z" style="fill:#68c7bd;fill-rule:nonzero;"/><path d="M370.467,188.791l-0.024,-3.509l255.538,-1.686l0.024,3.51l-255.538,1.685Z" style="fill:#68c7bd;fill-rule:nonzero;"/><path d="M530.855,208.731l-0.021,-3.509l282.548,-1.659l0.02,3.511l-282.547,1.657Z" style="fill:#68c7bd;fill-rule:nonzero;"/><path d="M412.28,217.995l-123.665,-0.099l0.003,-3.509l123.665,0.099l-0.003,3.509Z" style="fill:#68c7bd;fill-rule:nonzero;"/><rect x="370.454" y="271.412" width="468.675" height="3.509" style="fill:#68c7bd;fill-rule:nonzero;"/><rect x="329.535" y="340.671" width="216.695" height="3.51" style="fill:#68c7bd;fill-rule:nonzero;"/><rect x="455.198" y="316.135" width="244.209" height="3.509" style="fill:#68c7bd;fill-rule:nonzero;"/><path d="M593.202,398.887l-0.024,-3.51l333.936,-2.385l0.024,3.51l-333.936,2.385Z" style="fill:#68c7bd;fill-rule:nonzero;"/><rect x="549.813" y="443.986" width="169.933" height="3.51" style="fill:#68c7bd;fill-rule:nonzero;"/><rect x="650.183" y="422.513" width="158.963" height="3.509" style="fill:#68c7bd;fill-rule:nonzero;"/><rect x="672.118" y="488.267" width="116.688" height="3.509" style="fill:#68c7bd;fill-rule:nonzero;"/><rect x="748.129" y="539.261" width="99.047" height="3.509" style="fill:#68c7bd;fill-rule:nonzero;"/><rect x="699.407" y="517.786" width="52.97" height="3.511" style="fill:#68c7bd;fill-rule:nonzero;"/><path d="M844.377,692.615c-3.368,-2.899 -8.448,-2.517 -11.346,0.851c-2.897,3.37 -2.517,8.447 0.852,11.346c3.37,2.898 8.447,2.517 11.346,-0.853c2.896,-3.367 2.517,-8.447 -0.852,-11.344Z" style="fill:#4b73e1;fill-rule:nonzero;"/><path d="M826.683,677.394c-3.368,-2.897 -8.448,-2.515 -11.343,0.853c-2.901,3.37 -2.518,8.447 0.851,11.345c3.37,2.899 8.447,2.517 11.345,-0.852c2.898,-3.367 2.517,-8.447 -0.853,-11.346Z" style="fill:#4b73e1;fill-rule:nonzero;"/><path d="M806.345,659.899c-3.368,-2.898 -8.447,-2.514 -11.344,0.852c-2.898,3.371 -2.518,8.448 0.852,11.345c3.369,2.899 8.447,2.518 11.345,-0.852c2.896,-3.367 2.516,-8.446 -0.853,-11.345Z" style="fill:#4b73e1;fill-rule:nonzero;"/><path d="M786.006,642.404c-3.369,-2.898 -8.447,-2.515 -11.343,0.852c-2.899,3.369 -2.517,8.447 0.852,11.345c3.37,2.899 8.446,2.517 11.345,-0.852c2.897,-3.367 2.516,-8.446 -0.854,-11.345Z" style="fill:#4b73e1;fill-rule:nonzero;"/><path d="M765.669,624.91c-3.369,-2.899 -8.448,-2.516 -11.346,0.85c-2.898,3.37 -2.515,8.448 0.853,11.346c3.369,2.899 8.448,2.517 11.345,-0.853c2.898,-3.367 2.517,-8.446 -0.852,-11.343Z" style="fill:#4b73e1;fill-rule:nonzero;"/><path d="M745.33,607.413c-3.369,-2.898 -8.448,-2.515 -11.345,0.852c-2.9,3.369 -2.516,8.448 0.852,11.345c3.37,2.899 8.447,2.517 11.346,-0.852c2.897,-3.367 2.517,-8.446 -0.853,-11.345Z" style="fill:#4b73e1;fill-rule:nonzero;"/><path d="M724.993,589.917c-3.369,-2.897 -8.449,-2.514 -11.347,0.853c-2.897,3.37 -2.517,8.447 0.853,11.345c3.369,2.899 8.449,2.517 11.347,-0.852c2.894,-3.367 2.513,-8.447 -0.853,-11.346Z" style="fill:#4b73e1;fill-rule:nonzero;"/><path d="M704.654,572.422c-3.37,-2.898 -8.45,-2.515 -11.344,0.852c-2.9,3.371 -2.517,8.448 0.852,11.346c3.369,2.899 8.445,2.517 11.344,-0.853c2.897,-3.367 2.516,-8.446 -0.852,-11.345Z" style="fill:#4b73e1;fill-rule:nonzero;"/><path d="M684.314,554.927c-3.369,-2.898 -8.448,-2.515 -11.344,0.852c-2.898,3.37 -2.516,8.448 0.853,11.345c3.368,2.899 8.447,2.517 11.346,-0.852c2.895,-3.367 2.514,-8.447 -0.855,-11.345Z" style="fill:#4b73e1;fill-rule:nonzero;"/><path d="M663.977,537.431c-3.37,-2.897 -8.448,-2.514 -11.345,0.853c-2.898,3.37 -2.516,8.447 0.851,11.345c3.37,2.898 8.448,2.517 11.347,-0.852c2.897,-3.367 2.516,-8.447 -0.853,-11.346Z" style="fill:#4b73e1;fill-rule:nonzero;"/><path d="M643.639,519.937c-3.369,-2.898 -8.45,-2.515 -11.346,0.852c-2.898,3.368 -2.516,8.447 0.853,11.344c3.369,2.899 8.448,2.518 11.345,-0.852c2.898,-3.367 2.517,-8.447 -0.852,-11.344Z" style="fill:#4b73e1;fill-rule:nonzero;"/><path d="M625.964,507.489l-0.042,-0.369l-0.059,-0.367l-0.076,-0.36l-0.095,-0.358l-0.11,-0.351l-0.063,-0.174l-0.067,-0.172l-0.071,-0.17l-0.074,-0.168l-0.08,-0.166l-0.085,-0.165l-0.089,-0.163l-0.093,-0.16l-0.098,-0.158l-0.101,-0.156l-0.106,-0.153l-0.11,-0.152l-0.113,-0.148l-0.121,-0.146l-0.123,-0.142l-0.126,-0.141l-0.134,-0.137l-0.135,-0.134l-0.142,-0.132l-0.144,-0.127l-0.148,-0.126l-0.15,-0.119l-0.153,-0.114l-0.157,-0.11l-0.159,-0.105l-0.159,-0.102l-0.161,-0.095l-0.165,-0.091l-0.165,-0.086l-0.168,-0.082l-0.169,-0.078l-0.171,-0.072l-0.173,-0.068l-0.174,-0.064l-0.174,-0.058l-0.176,-0.054l-0.181,-0.049l-0.177,-0.045l-0.179,-0.041l-0.183,-0.035l-0.363,-0.059l-0.367,-0.039l-0.37,-0.022l-0.37,-0.003l-0.371,0.014l-0.372,0.033l-0.371,-0.004l-0.371,0.015l-0.369,0.033l-0.366,0.052l-0.362,0.067l-0.36,0.087l-0.177,0.05l-0.177,0.053l-0.172,0.06l-0.174,0.063l-0.173,0.068l-0.169,0.072l-0.169,0.078l-0.167,0.081l-0.164,0.085l-0.162,0.092l-0.161,0.094l-0.159,0.099l-0.157,0.104l-0.153,0.109l-0.152,0.112l-0.149,0.118l-0.145,0.121l-0.145,0.127l-0.141,0.131l-0.137,0.135l-0.135,0.139l-0.131,0.143l-0.124,0.143l-0.12,0.149l-0.116,0.149l-0.113,0.153l-0.107,0.154l-0.101,0.158l-0.1,0.159l-0.093,0.161l-0.089,0.163l-0.084,0.166l-0.081,0.167l-0.075,0.169l-0.071,0.171l-0.067,0.172l-0.06,0.174l-0.059,0.175l-0.053,0.177l-0.048,0.177l-0.083,0.36l-0.066,0.363l-0.049,0.366l-0.029,0.369l-0.012,0.371l0.006,0.373l0.023,0.372l0.043,0.374l0.058,0.371l0.076,0.37l0.096,0.369l0.111,0.366l0.13,0.361l0.147,0.358l0.166,0.353l0.181,0.346l0.201,0.341l0.218,0.333l0.236,0.327l0.251,0.318l0.268,0.307l0.288,0.298l0.3,0.286l0.311,0.266l0.32,0.25l0.327,0.232l0.337,0.215l0.342,0.197l0.347,0.179l0.353,0.162l0.36,0.145l0.362,0.126l0.368,0.111l0.368,0.091l0.37,0.074l0.371,0.056l0.375,0.039l0.372,0.019l0.371,-0.049l0.369,-0.068l0.367,-0.084l0.363,-0.104l0.362,-0.12l0.357,-0.138l0.351,-0.154l0.345,-0.174l0.341,-0.188l0.333,-0.208l0.325,-0.224l0.319,-0.241l0.307,-0.256l0.3,-0.274l0.287,-0.291l0.277,-0.308l0.263,-0.32l0.245,-0.328l0.227,-0.338l0.207,-0.342l0.192,-0.35l0.17,-0.356l0.157,-0.359l0.135,-0.364l0.12,-0.369l0.099,-0.371l0.084,-0.373l0.064,-0.375l0.049,-0.375l0.029,-0.376l0.011,-0.374l-0.006,-0.374l-0.022,-0.371Z" style="fill:#4b73e1;fill-rule:nonzero;"/><path d="M595.524,520.214c-3.129,3.154 -3.108,8.248 0.045,11.376c3.156,3.13 8.248,3.11 11.378,-0.045c3.129,-3.154 3.111,-8.247 -0.047,-11.376c-3.153,-3.13 -8.246,-3.109 -11.376,0.045Z" style="fill:#4b73e1;fill-rule:nonzero;"/><path d="M578.865,537.005c-3.13,3.156 -3.108,8.249 0.045,11.377c3.156,3.13 8.248,3.11 11.378,-0.044c3.13,-3.156 3.109,-8.248 -0.044,-11.379c-3.153,-3.127 -8.248,-3.108 -11.379,0.046Z" style="fill:#4b73e1;fill-rule:nonzero;"/><path d="M562.206,553.796c-3.13,3.156 -3.107,8.249 0.047,11.377c3.153,3.132 8.246,3.11 11.376,-0.044c3.129,-3.156 3.111,-8.247 -0.045,-11.378c-3.153,-3.127 -8.247,-3.109 -11.378,0.045Z" style="fill:#4b73e1;fill-rule:nonzero;"/><path d="M545.549,570.589c-3.13,3.155 -3.11,8.248 0.044,11.377c3.156,3.13 8.248,3.109 11.377,-0.046c3.129,-3.154 3.11,-8.247 -0.044,-11.378c-3.154,-3.127 -8.248,-3.109 -11.377,0.047Z" style="fill:#4b73e1;fill-rule:nonzero;"/><path d="M541.695,593.971l-0.037,-0.358l-0.055,-0.359l-0.073,-0.359l-0.088,-0.359l-0.105,-0.356l-0.123,-0.355l-0.14,-0.353l-0.156,-0.348l-0.172,-0.345l-0.19,-0.34l-0.205,-0.335l-0.223,-0.328l-0.238,-0.322l-0.256,-0.315l-0.271,-0.306l-0.287,-0.298l-0.301,-0.286l-0.308,-0.268l-0.318,-0.252l-0.323,-0.237l-0.33,-0.22l-0.337,-0.203l-0.342,-0.187l-0.344,-0.169l-0.353,-0.153l-0.352,-0.137l-0.356,-0.12l-0.358,-0.103l-0.359,-0.086l-0.359,-0.069l-0.359,-0.052l-0.359,-0.036l-0.347,0.094l-0.347,0.111l-0.343,0.127l-0.341,0.144l-0.337,0.16l-0.329,0.176l-0.327,0.192l-0.321,0.208l-0.312,0.225l-0.307,0.24l-0.298,0.256l-0.289,0.27l-0.282,0.287l-0.271,0.299l-0.26,0.317l-0.25,0.331l-0.235,0.34l-0.218,0.347l-0.199,0.353l-0.183,0.355l-0.166,0.361l-0.149,0.365l-0.13,0.366l-0.115,0.368l-0.095,0.37l-0.082,0.37l-0.063,0.37l-0.043,0.369l-0.031,0.368l-0.011,0.365l0.003,0.365l0.021,0.359l0.039,0.355l0.054,0.352l0.07,0.345l0.089,0.34l0.103,0.332l0.122,0.326l0.065,0.16l0.069,0.158l0.074,0.155l0.08,0.153l0.082,0.152l0.087,0.148l0.09,0.146l0.095,0.144l0.098,0.14l0.103,0.138l0.107,0.134l0.11,0.134l0.115,0.128l0.118,0.126l0.123,0.124l0.126,0.12l0.13,0.116l0.136,0.113l0.138,0.109l0.143,0.107l0.146,0.102l0.145,0.096l0.152,0.093l0.15,0.086l0.155,0.083l0.155,0.077l0.158,0.074l0.159,0.067l0.159,0.063l0.162,0.059l0.163,0.053l0.165,0.05l0.167,0.044l0.166,0.041l0.168,0.034l0.17,0.031l0.17,0.026l0.17,0.022l0.174,0.016l0.171,0.013l0.347,0.012l0.349,-0.007l0.35,-0.024l0.35,-0.041l0.351,-0.06l0.349,-0.076l0.356,0.018l0.356,0.001l0.352,-0.017l0.349,-0.032l0.346,-0.052l0.339,-0.067l0.169,-0.041l0.167,-0.045l0.165,-0.049l0.164,-0.054l0.161,-0.058l0.162,-0.062l0.156,-0.066l0.157,-0.072l0.156,-0.075l0.151,-0.079l0.152,-0.085l0.145,-0.088l0.146,-0.094l0.145,-0.098l0.139,-0.101l0.138,-0.107l0.135,-0.111l0.133,-0.116l0.131,-0.118l0.127,-0.125l0.122,-0.128l0.119,-0.13l0.114,-0.134l0.11,-0.136l0.105,-0.139l0.1,-0.141l0.098,-0.144l0.091,-0.146l0.089,-0.149l0.082,-0.151l0.078,-0.152l0.074,-0.156l0.07,-0.156l0.065,-0.159l0.062,-0.161l0.057,-0.163l0.051,-0.163l0.048,-0.166l0.044,-0.167l0.039,-0.169l0.065,-0.341l0.048,-0.344l0.032,-0.35l0.013,-0.353l-0.004,-0.355l-0.022,-0.357Z" style="fill:#4b73e1;fill-rule:nonzero;"/><path d="M518.377,572.057c-3.604,-2.6 -8.633,-1.786 -11.231,1.817c-2.601,3.604 -1.787,8.631 1.818,11.231c3.603,2.6 8.63,1.788 11.231,-1.817c2.598,-3.602 1.784,-8.631 -1.818,-11.231Z" style="fill:#4b73e1;fill-rule:nonzero;"/><path d="M497.918,557.296c-3.605,-2.599 -8.634,-1.784 -11.231,1.818c-2.6,3.604 -1.787,8.631 1.817,11.231c3.603,2.6 8.63,1.788 11.231,-1.818c2.598,-3.601 1.786,-8.631 -1.817,-11.231Z" style="fill:#4b73e1;fill-rule:nonzero;"/><path d="M477.458,542.537c-3.604,-2.6 -8.631,-1.786 -11.231,1.817c-2.599,3.604 -1.788,8.631 1.817,11.231c3.603,2.6 8.632,1.788 11.232,-1.818c2.598,-3.601 1.786,-8.631 -1.818,-11.23Z" style="fill:#4b73e1;fill-rule:nonzero;"/><path d="M456.998,527.777c-3.603,-2.601 -8.631,-1.786 -11.229,1.817c-2.601,3.604 -1.788,8.631 1.816,11.231c3.603,2.6 8.631,1.787 11.232,-1.818c2.598,-3.601 1.786,-8.631 -1.819,-11.23Z" style="fill:#4b73e1;fill-rule:nonzero;"/><path d="M436.539,513.016c-3.604,-2.599 -8.631,-1.785 -11.23,1.818c-2.601,3.604 -1.788,8.632 1.816,11.231c3.605,2.6 8.631,1.787 11.232,-1.817c2.6,-3.602 1.786,-8.631 -1.818,-11.232Z" style="fill:#4b73e1;fill-rule:nonzero;"/><path d="M416.081,498.257c-3.606,-2.6 -8.633,-1.786 -11.232,1.817c-2.6,3.604 -1.787,8.631 1.817,11.231c3.605,2.601 8.631,1.787 11.231,-1.818c2.6,-3.601 1.786,-8.629 -1.816,-11.23Z" style="fill:#4b73e1;fill-rule:nonzero;"/><path d="M395.62,483.497c-3.604,-2.6 -8.632,-1.785 -11.231,1.817c-2.599,3.604 -1.787,8.631 1.818,11.231c3.604,2.6 8.63,1.788 11.231,-1.818c2.598,-3.602 1.788,-8.63 -1.818,-11.23Z" style="fill:#4b73e1;fill-rule:nonzero;"/><path d="M375.162,468.737c-3.606,-2.601 -8.633,-1.785 -11.232,1.817c-2.6,3.604 -1.787,8.631 1.817,11.231c3.605,2.6 8.63,1.787 11.232,-1.818c2.599,-3.601 1.787,-8.631 -1.817,-11.23Z" style="fill:#4b73e1;fill-rule:nonzero;"/><path d="M354.702,453.976c-3.604,-2.6 -8.633,-1.785 -11.231,1.818c-2.6,3.604 -1.787,8.631 1.818,11.231c3.602,2.6 8.63,1.787 11.229,-1.817c2.6,-3.602 1.787,-8.63 -1.816,-11.232Z" style="fill:#4b73e1;fill-rule:nonzero;"/><path d="M334.243,439.216c-3.604,-2.6 -8.634,-1.785 -11.231,1.818c-2.601,3.604 -1.787,8.631 1.816,11.231c3.605,2.6 8.631,1.787 11.231,-1.817c2.599,-3.602 1.787,-8.632 -1.816,-11.232Z" style="fill:#4b73e1;fill-rule:nonzero;"/><path d="M313.783,424.456c-3.603,-2.6 -8.633,-1.785 -11.23,1.818c-2.602,3.604 -1.788,8.631 1.817,11.231c3.604,2.6 8.63,1.787 11.231,-1.818c2.598,-3.601 1.786,-8.631 -1.818,-11.231Z" style="fill:#4b73e1;fill-rule:nonzero;"/><path d="M293.322,409.696c-3.602,-2.6 -8.631,-1.785 -11.228,1.818c-2.602,3.604 -1.787,8.631 1.816,11.231c3.604,2.599 8.631,1.787 11.232,-1.818c2.596,-3.602 1.786,-8.63 -1.82,-11.231Z" style="fill:#4b73e1;fill-rule:nonzero;"/><path d="M272.863,394.937c-3.603,-2.601 -8.633,-1.786 -11.23,1.817c-2.602,3.604 -1.787,8.631 1.817,11.231c3.605,2.6 8.63,1.787 11.232,-1.818c2.597,-3.602 1.786,-8.631 -1.819,-11.23Z" style="fill:#4b73e1;fill-rule:nonzero;"/><path d="M252.404,380.177c-3.603,-2.601 -8.632,-1.785 -11.23,1.817c-2.602,3.604 -1.787,8.631 1.817,11.231c3.603,2.6 8.631,1.787 11.23,-1.818c2.599,-3.602 1.787,-8.63 -1.817,-11.23Z" style="fill:#4b73e1;fill-rule:nonzero;"/><path d="M231.943,365.416c-3.602,-2.6 -8.63,-1.785 -11.228,1.818c-2.601,3.604 -1.787,8.631 1.816,11.23c3.604,2.601 8.631,1.788 11.231,-1.816c2.597,-3.602 1.787,-8.631 -1.819,-11.232Z" style="fill:#4b73e1;fill-rule:nonzero;"/><path d="M213.991,352.464c-3.603,-2.599 -8.633,-1.785 -11.23,1.817c-2.601,3.605 -1.787,8.632 1.817,11.232c3.604,2.6 8.631,1.786 11.232,-1.818c2.598,-3.603 1.784,-8.631 -1.819,-11.231Z" style="fill:#4b73e1;fill-rule:nonzero;"/><path d="M223.396,341.567l-57.627,-21.609l30.014,60.029l-2.402,-34.817l30.015,-3.603Z" style="fill:#4b73e1;fill-rule:nonzero;"/><path d="M160.537,154.655c-3.086,0 -6.095,0.285 -8.996,0.831c-8.042,-18.103 -25.672,-30.669 -46.135,-30.669c-22.608,0 -41.767,15.344 -48.339,36.546c-2.193,-0.486 -4.463,-0.741 -6.789,-0.741c-18.429,0 -33.366,16.028 -33.366,35.801c0,19.776 14.937,35.805 33.366,35.805c10.004,0 18.974,-4.724 25.092,-12.201c8.406,6.417 18.797,10.212 30.036,10.212c9.665,0 18.701,-2.805 26.392,-7.671c7.666,6.011 17.723,9.66 28.739,9.66c24.036,0 43.519,-17.365 43.519,-38.786c0,-21.421 -19.483,-38.787 -43.519,-38.787Z" style="fill:#556fb5;fill-rule:nonzero;"/><path d="M768.938,122.978c-2.02,0 -3.99,0.147 -5.893,0.422c-5.266,-9.194 -16.815,-15.577 -30.217,-15.577c-14.807,0 -27.355,7.794 -31.662,18.564c-1.436,-0.248 -2.923,-0.377 -4.448,-0.377c-12.069,0 -21.854,8.141 -21.854,18.186c0,10.044 9.785,18.187 21.854,18.187c6.553,0 12.43,-2.399 16.435,-6.198c5.51,3.259 12.312,5.187 19.675,5.187c6.33,0 12.248,-1.425 17.287,-3.897c5.022,3.054 11.608,4.908 18.823,4.908c15.744,0 28.505,-8.822 28.505,-19.702c0,-10.882 -12.761,-19.703 -28.505,-19.703Z" style="fill:#edeae9;fill-rule:nonzero;"/><path d="M858.084,160.752c-2.934,0 -5.792,0.205 -8.552,0.593c-7.643,-12.925 -24.404,-21.898 -43.858,-21.898c-21.496,0 -39.708,10.955 -45.956,26.095c-2.086,-0.347 -4.243,-0.53 -6.456,-0.53c-17.518,0 -31.721,11.445 -31.721,25.564c0,14.12 14.203,25.565 31.721,25.565c9.509,0 18.04,-3.373 23.854,-8.713c7.997,4.584 17.871,7.293 28.558,7.293c9.188,0 17.778,-2.003 25.09,-5.477c7.288,4.293 16.849,6.897 27.32,6.897c22.851,0 41.376,-12.399 41.376,-27.695c0,-15.295 -18.525,-27.694 -41.376,-27.694Z" style="fill:#4b73e1;fill-rule:nonzero;"/><path d="M771.275,328.934c-2.019,0 -3.989,0.146 -5.891,0.423c-5.268,-9.195 -16.815,-15.578 -30.217,-15.578c-14.81,0 -27.357,7.794 -31.662,18.563c-1.437,-0.246 -2.924,-0.377 -4.447,-0.377c-12.071,0 -21.856,8.143 -21.856,18.187c0,10.045 9.785,18.186 21.856,18.186c6.551,0 12.428,-2.399 16.434,-6.198c5.51,3.261 12.312,5.188 19.675,5.188c6.331,0 12.248,-1.425 17.285,-3.897c5.022,3.055 11.61,4.907 18.823,4.907c15.744,0 28.507,-8.821 28.507,-19.702c0,-10.88 -12.763,-19.702 -28.507,-19.702Z" style="fill:#68c7bd;fill-rule:nonzero;"/><path d="M369.252,160.792c-2.019,0 -3.989,0.146 -5.891,0.423c-5.268,-9.195 -16.815,-15.578 -30.217,-15.578c-14.81,0 -27.357,7.794 -31.662,18.563c-1.437,-0.246 -2.924,-0.377 -4.447,-0.377c-12.071,0 -21.856,8.143 -21.856,18.187c0,10.045 9.785,18.186 21.856,18.186c6.551,0 12.428,-2.399 16.434,-6.198c5.51,3.261 12.312,5.188 19.675,5.188c6.331,0 12.248,-1.425 17.285,-3.897c5.022,3.055 11.61,4.907 18.823,4.907c15.744,0 28.507,-8.821 28.507,-19.702c0,-10.88 -12.763,-19.702 -28.507,-19.702Z" style="fill:#68c7bd;fill-rule:nonzero;"/><path d="M182.885,263.82c0,0 9.033,-2.161 14.531,1.433c5.496,3.595 6.262,4.558 6.262,4.558c0,0 5.72,-5.362 10.261,-5.362c4.542,0 9.098,1.768 9.098,1.768c0,0 -8.135,-1.447 -13.144,1.917c-1.686,1.131 -4.541,5.033 -6.694,5.033c-2.15,0 -3.955,-4.547 -8.125,-6.711c-4.798,-2.49 -12.189,-2.636 -12.189,-2.636Z" style="fill:#1e2435;fill-rule:nonzero;"/><path d="M248.304,277.945c0,0 11.938,-2.945 19.203,1.952c7.265,4.895 8.276,6.207 8.276,6.207c0,0 7.563,-7.303 13.565,-7.303c6.002,0 12.023,2.407 12.023,2.407c0,0 -10.752,-1.968 -17.373,2.612c-2.228,1.54 -6.002,6.854 -8.845,6.854c-2.843,0 -5.227,-6.191 -10.739,-9.139c-6.343,-3.392 -16.11,-3.59 -16.11,-3.59Z" style="fill:#1e2435;fill-rule:nonzero;"/><path d="M130.052,241.015c0,0 8.455,-1.938 13.597,1.285c5.144,3.222 5.861,4.086 5.861,4.086c0,0 5.352,-4.807 9.601,-4.807c4.248,0 8.514,1.585 8.514,1.585c0,0 -7.612,-1.297 -12.302,1.719c-1.575,1.014 -4.248,4.512 -6.261,4.512c-2.013,0 -3.703,-4.076 -7.603,-6.016c-4.49,-2.233 -11.407,-2.364 -11.407,-2.364Z" style="fill:#1e2435;fill-rule:nonzero;"/><path d="M210.631,226.121c0,0 7.23,-1.784 11.631,1.181c4.398,2.966 5.013,3.76 5.013,3.76c0,0 4.579,-4.423 8.214,-4.423c3.636,0 7.282,1.458 7.282,1.458c0,0 -6.512,-1.193 -10.521,1.582c-1.349,0.933 -3.637,4.152 -5.356,4.152c-1.723,0 -3.167,-3.75 -6.505,-5.537c-3.841,-2.053 -9.758,-2.173 -9.758,-2.173Z" style="fill:#1e2435;fill-rule:nonzero;"/><path d="M563.629,794.967l-12.255,-17.049l36.216,-26.03l12.255,17.05l-36.216,26.029Z" style="fill:#1e2435;fill-rule:nonzero;"/><path d="M446.686,891.045c-4.172,2.997 -11.57,-0.162 -16.524,-7.054l-4.942,-6.879c-4.955,-6.892 -5.592,-14.91 -1.422,-17.908l124.568,-89.533c4.17,-2.997 11.568,0.161 16.522,7.054l4.945,6.877c4.953,6.894 5.59,14.912 1.419,17.91l-124.566,89.533Z" style="fill:#3f485c;fill-rule:nonzero;"/><path d="M571.747,786.721l-124.191,89.263c-4.171,2.998 -11.57,-0.161 -16.525,-7.053l-4.942,-6.878c-0.734,-1.021 -1.371,-2.068 -1.915,-3.119l-0.373,0.27c-4.173,2.998 -3.536,11.016 1.419,17.908l4.942,6.879c4.954,6.892 12.352,10.051 16.524,7.054l124.566,-89.533c3.553,-2.554 3.616,-8.75 0.495,-14.791Z" style="fill:#1e2435;fill-rule:nonzero;"/><path d="M444.349,864.807c-1.84,1.322 -4.388,0.923 -5.693,-0.892c-1.303,-1.814 -0.87,-4.356 0.97,-5.678l111.167,-79.903c1.842,-1.321 4.39,-0.922 5.692,0.893c1.303,1.814 0.87,4.356 -0.968,5.678l-111.168,79.902Z" style="fill:#596276;fill-rule:nonzero;"/><path d="M731.642,662.087c-26.572,-36.966 -78.677,-45.125 -116.157,-18.186c-37.479,26.938 -46.354,78.928 -19.787,115.894c26.57,36.966 78.677,45.124 116.157,18.186c37.478,-26.938 46.355,-78.928 19.787,-115.894Zm-145.511,104.586c-30.31,-42.17 -20.184,-101.479 22.572,-132.208c42.755,-30.731 102.196,-21.424 132.505,20.744c30.31,42.17 20.185,101.479 -22.57,132.208c-42.755,30.731 -102.197,21.424 -132.507,-20.744Z" style="fill:#1e2435;fill-rule:nonzero;"/><path d="M733.231,654.557c-26.568,-36.967 -78.675,-45.124 -116.153,-18.187c-37.48,26.939 -46.357,78.929 -19.787,115.895c26.569,36.965 78.677,45.123 116.156,18.186c37.479,-26.94 46.355,-78.929 19.784,-115.894Zm-145.508,104.585c-30.309,-42.17 -20.185,-101.477 22.57,-132.208c42.755,-30.73 102.199,-21.424 132.508,20.745c30.308,42.17 20.184,101.479 -22.571,132.208c-42.755,30.731 -102.199,21.424 -132.507,-20.745Z" style="fill:#3f485c;fill-rule:nonzero;"/><path d="M738.879,723.951l-92.769,-88.168c6.023,-1.442 12.063,-2.134 18.027,-2.134c32.744,0 62.998,20.893 72.965,53.392c2.233,7.279 3.297,14.646 3.298,21.903c0.001,5.079 -0.518,10.103 -1.521,15.007Z" style="fill:#fff;fill-rule:nonzero;"/><path d="M726.129,753.126c-20.614,-15.375 -50.055,-37.162 -76.255,-56.513c4.295,-5.46 5.943,-12.79 3.779,-19.844c-2.628,-8.566 -10.136,-14.318 -18.645,-15.243l-4.213,-20.354c3.366,-1.594 6.888,-2.966 10.555,-4.09c1.583,-0.486 3.171,-0.919 4.76,-1.299l92.769,88.168c-2.15,10.508 -6.52,20.457 -12.75,29.175Z" style="fill:#9bd8df;fill-rule:nonzero;"/><path d="M614.439,670.464c-3.981,-2.936 -7.593,-5.599 -10.736,-7.915c7.14,-8.877 16.314,-16.27 27.092,-21.377l4.213,20.354c-0.801,-0.087 -1.611,-0.132 -2.426,-0.132c-2.2,0 -4.443,0.324 -6.662,1.004c-4.782,1.467 -8.724,4.367 -11.481,8.066Z" style="fill:#a1dbe1;fill-rule:nonzero;"/><path d="M643.423,702.189l-2.525,-12.204c2.935,2.167 5.935,4.382 8.976,6.628c-1.741,2.214 -3.917,4.12 -6.451,5.576Z" style="fill:#47c2c5;fill-rule:nonzero;"/><path d="M632.083,705.221c-9.476,0 -18.194,-6.003 -21.068,-15.375c-2.104,-6.857 -0.606,-13.974 3.424,-19.382c7.673,5.657 16.719,12.33 26.459,19.521l2.525,12.204c-1.447,0.832 -3.011,1.517 -4.677,2.027c-2.219,0.681 -4.462,1.005 -6.663,1.005Z" style="fill:#53c4c8;fill-rule:nonzero;"/><path d="M649.874,696.613c-3.041,-2.246 -6.041,-4.461 -8.976,-6.628l-5.89,-28.459c8.509,0.925 16.017,6.677 18.645,15.243c2.164,7.054 0.516,14.384 -3.779,19.844Z" style="fill:#addfe5;fill-rule:nonzero;"/><path d="M640.898,689.985c-9.74,-7.191 -18.786,-13.864 -26.459,-19.521c2.757,-3.699 6.699,-6.599 11.481,-8.066c2.219,-0.68 4.462,-1.004 6.662,-1.004c0.815,0 1.625,0.045 2.426,0.132l5.89,28.459Z" style="fill:#b1e0e6;fill-rule:nonzero;"/><path d="M501.362,224.434c0,0 26.841,-21.145 31.321,-30.489c4.479,-9.343 -15.342,-30.643 -21.249,-33.017c-5.911,-2.373 -11.725,-2.071 -14.871,-5.417c-3.144,-3.347 -0.66,-4.487 -0.66,-4.487c0,0 -4.222,-1.716 -5.605,2.222c-0.925,2.622 1.002,4.617 1.002,4.617c0,0 -1.823,1.885 -3.61,5.931c-1.788,4.046 0.494,11.114 0.494,11.114l13.178,49.526Z" style="fill:#0c1221;fill-rule:nonzero;"/><path d="M473.677,214.462l-4.364,27.603c0,0 16.427,11.18 27.445,8.045c11.017,-3.135 17.345,-4.721 17.345,-4.721l-4.82,-38.009l-35.606,7.082Z" style="fill:#a97451;fill-rule:nonzero;"/><path d="M487.78,168.742c0,0 -7.029,8.778 -7.865,10.772c-0.835,1.994 -0.109,6.653 -0.109,6.653l-9.792,8.954l2.973,4.035c0,0 -2.24,11.017 -3.361,12.892c-1.12,1.875 -5.395,0.083 -3.361,5.625c2.031,5.541 24.213,9.701 29.965,8.762c5.752,-0.937 12.96,-12.876 12.96,-12.876c0,0 7.748,-0.102 7.836,-9.109c0.093,-9.005 -10.328,-3.325 -10.328,-3.325c0,0 12.34,-14.255 0.815,-25.117c-11.527,-10.861 -19.733,-7.266 -19.733,-7.266Z" style="fill:#b7835f;fill-rule:nonzero;"/><path d="M512.979,232.686c0,0 -16.788,9.58 -25.356,8.14c-8.569,-1.441 -16.588,-10.458 -16.588,-10.458l-16.862,9.816c0,0 -6.254,17.513 -2.382,48.009c2.183,17.199 11.495,40.228 18.689,67.119c2.574,9.611 -8.369,26.273 -8.369,26.273c0,0 14.685,2.545 19.649,4.092c20.305,6.332 30.438,2.176 30.438,2.176c0,0 -0.291,-28.162 7.234,-50.195c13.157,-38.53 26.223,-87.27 26.223,-87.27l-32.676,-17.702Z" style="fill:#fff;fill-rule:nonzero;"/><path d="M471.035,230.368l-1.722,17.635l7.517,-1.697l-7.517,4.557c0,0 -7.867,36.436 -6.867,42.111c1,5.674 6.867,8.322 6.867,8.322c0,0 -6.473,0.697 -4.468,5.456c2.006,4.758 1.694,19.614 6.19,31.625c3.795,10.137 11.029,27.061 11.207,33.629c0.178,6.568 -1.673,10.592 -1.673,10.592l-12.936,-1.78c0,0 0.414,-29.491 -8.841,-49.153c-9.256,-19.662 -18.801,-32.133 -15.018,-58.678c3.784,-26.546 15.89,-43.965 15.89,-43.965l11.371,1.346Z" style="fill:#b5b8bc;fill-rule:nonzero;"/><path d="M481.058,179.594c-0.805,-0.945 -2.132,-1.278 -2.132,-1.278c0,0 1.525,-0.988 0.397,-2.295c-1.129,-1.308 -4.057,-1.456 -4.057,-1.456c0,0 0.246,-1.824 -1.483,-2.629c-1.727,-0.807 -8.36,-1.089 -8.36,-1.089c0,0 1.124,-0.769 -1.154,-1.922c-2.282,-1.152 -5.484,-0.437 -10.189,-1.926c-4.71,-1.489 -10.325,-0.281 -13.177,1.064c-2.849,1.346 -8.678,6.37 -8.678,6.37c0,0 -0.219,0.463 -0.472,1.173c1.416,3.399 3.984,6.136 6.9,8.386c3.204,-1.734 8.567,-4.485 9.299,-3.893c1.053,0.852 4.061,2.84 8.217,4.328c4.157,1.488 7.36,1.463 8.612,1.686c1.252,0.223 6.255,-0.268 6.753,-1.493c0.498,-1.226 -0.18,-1.872 -2.082,-2.128c-1.902,-0.256 -3.053,-0.447 -4.179,-0.026c-1.125,0.423 0.225,-0.706 0.225,-0.706c0,0 2.825,-0.576 4.026,-0.196c1.205,0.38 4.358,0.513 6.834,0.347c2.477,-0.167 5.501,-1.371 4.7,-2.317Z" style="fill:#b7835f;fill-rule:nonzero;"/><path d="M439.814,168.742c0,0 -0.694,3.571 2.575,7.726c3.269,4.156 4.601,5.33 4.601,5.33l-7.728,3.141c0,0 -2.863,-1.482 -5.279,-6.213c-2.417,-4.731 -1.54,-7.339 -1.54,-7.339l7.371,-2.645Z" style="fill:#fff;fill-rule:nonzero;"/><path d="M554.273,557.884c-4.852,-31.002 -15.735,-43.787 -15.843,-43.91l-0.47,-0.539l-0.105,-0.714c-0.07,-0.501 -7.07,-50.441 -12.288,-79.801c-4.585,-25.783 -10.843,-39.558 -13.369,-45.067l-42.332,-7.035c-6.733,2.916 -53.197,25.359 -66.959,34.461c-7.07,4.676 -11.355,5.217 -13.967,5.219c0.024,0.681 0.074,1.58 0.125,2.506c0.257,4.588 6.19,21.458 11.926,37.773c6.773,19.26 13.775,39.176 15.682,49.719c3.636,20.076 6.695,34.387 8.62,42.857l0.375,1.643l-1.417,0.91c-3.278,2.106 -7.889,4.679 -11.238,4.975c-0.415,0.036 -0.851,0.055 -1.295,0.055c-4.471,0 -9.502,-1.883 -12.195,-3.05c-0.126,0.114 -0.277,0.309 -0.426,0.546c2.059,1.848 6.709,5.598 12.935,8.104c5.989,2.409 10.278,2.769 12.302,2.769c0.751,0 1.156,-0.051 1.156,-0.051l0.752,-0.097l0.687,0.345l6.094,3.17c0.605,-0.948 1.254,-2.302 1.303,-3.788c0.063,-1.832 -0.167,-4.319 -0.407,-6.308l-0.878,-3.695c0.194,-2.535 -0.014,-6.459 -0.277,-11.426c-0.285,-5.389 -0.642,-12.095 -0.661,-20.086c-0.014,-6.202 0.358,-13.579 0.716,-20.711c0.681,-13.47 1.385,-27.401 -0.448,-33.617c-6.306,-21.395 -14.405,-30.328 -14.486,-30.417l-3.366,-3.643l4.94,-0.387c0.222,-0.018 22.337,-1.777 40.452,-7.433c9.47,-2.956 18.315,-6.367 24.623,-8.959c1.89,11.619 5.737,30.194 12.624,44.78c4.363,9.24 9.02,20.155 13.525,30.708c2.684,6.29 5.218,12.231 7.515,17.399c3.986,8.964 6.679,14.225 8.01,15.633c0.734,0.778 2.102,2.229 4.543,18.05c1.373,8.898 2.824,20.629 4.196,33.925c2.31,22.37 4.554,51.556 4.023,62.77l-0.11,2.328l-2.329,-0.04c-5.596,-0.095 -9.509,-0.432 -11.63,-1.002c-4.634,-1.243 -9.531,-5.225 -12.078,-7.532c-0.094,0.05 -0.214,0.135 -0.344,0.246c1.477,2.465 4.99,7.75 10.375,12.374c2.295,1.969 4.375,3.424 6.144,4.496c2.481,1.28 6.056,2.8 6.083,2.806l0.694,0.157l0.517,0.515l5.038,5.173c0.768,-0.673 1.644,-1.675 2.041,-2.971c0.552,-1.802 0.986,-4.407 1.272,-6.433l0.154,-8.031l0.313,-0.95c3.773,-11.405 13.696,-59.768 9.163,-88.719Z" style="fill:#1e2435;fill-rule:nonzero;"/><path d="M363.193,196.698c19.508,-14.538 69.522,-26.12 69.522,-26.12c-1.913,6.033 7.687,13.897 7.687,13.897c0,0 -4.363,3.586 -20.511,10.687c-16.148,7.101 -31.553,16.088 -31.553,16.088c0,0 -2.754,5 17.238,4.185c19.993,-0.816 27.916,7.432 27.916,7.432c0,0 12.096,-7.142 15.174,-5.168c1.076,0.691 5.547,3.173 7.3,6.389c1.032,0.846 1.944,1.625 2.679,2.1c2.712,1.758 12.39,4.18 12.39,4.18c-1.174,6.535 -6.295,14.817 -9.181,30.326c-0.861,4.627 -3.199,19.807 0.592,32.28c3.279,10.782 12.71,19.372 12.71,19.372c0,0 -0.463,13.322 2.756,28.359c2.727,12.732 2.916,25.691 -1.082,41.27c-1.484,5.778 -10.133,17.531 -11.36,19.012c-2.518,3.041 -21.85,-12.012 -21.85,-12.012c0,0 18.985,-8.673 18.568,-26.662c-0.418,-17.988 -6.888,-32.241 -16.354,-47.36c-9.467,-15.118 -12.172,-38.696 -10.888,-50.191c0.13,-1.192 0.31,-2.596 0.527,-4.154c-7.25,1.436 -17.463,1.413 -30.374,-3.648c-27.904,-10.935 -40.317,-24.764 -46.406,-34.715c-6.089,-9.953 -6.795,-7.232 -8.449,-11.458c-1.916,-4.894 2.389,-6.219 12.949,-14.089Z" style="fill:#1e2435;fill-rule:nonzero;"/><path d="M397.72,421.719l14.914,-9.864c6.397,-4.231 21.665,-11.652 37.017,-18.75c-1.571,-0.135 -3.016,-0.752 -4.073,-1.753c-17.477,7.967 -36.613,17.072 -43.98,21.944c-14.914,9.864 -15.488,-0.319 -14.914,9.864c0.571,10.185 24.01,67.723 27.642,87.786c3.798,20.975 11.28,44.056 11.342,44.05c3.61,-0.371 -1.666,-49.927 -5.391,-70.501c-3.632,-20.064 -22.557,-62.776 -22.557,-62.776Z" style="fill:#3f485c;fill-rule:nonzero;"/><path d="M538.86,647.795c4.71,2.836 5.575,-36.709 5.855,-42.396c1.418,-28.819 -5.86,-71.57 -10.074,-76.037c-1.778,-1.886 -4.793,-8.07 -8.454,-16.305c-6.127,-13.784 -16.608,-31.418 -23.571,-46.164c-11.124,-23.557 -22.047,-55.93 -22.047,-55.93c0,0 4.065,35.361 13.56,55.478c6.964,14.746 14.896,34.274 21.02,48.057c3.661,8.236 6.677,14.42 8.455,16.306c4.753,5.038 14.871,116.759 15.256,116.991Z" style="fill:#3f485c;fill-rule:nonzero;"/><path d="M532.353,369.256l-4.808,1.777c0,0 3.45,5.328 5.852,7.731l2.403,2.403l0.94,0.418l5.44,-2.867l-9.827,-9.462Z" style="fill:#fff;fill-rule:nonzero;"/><path d="M495.636,408.448c0,0 11.029,-3.151 11.029,-6.695c0,-2.026 -30.722,-39.386 -30.722,-39.386l19.693,46.081Z" style="fill:#3f485c;fill-rule:nonzero;"/><path d="M512.669,360.222c0.037,0.221 0.057,0.34 0.062,0.341c0.112,0.04 0.071,-0.096 -0.062,-0.341Z" style="fill:#1e2435;fill-rule:nonzero;"/><path d="M616.16,308.525c0,0 0.708,-0.567 -9.29,-15.26c-9.999,-14.693 -41.316,-44.049 -51.639,-47.14c-8.505,-2.546 -13.689,-2.155 -16.262,-0.529l-25.99,-12.91c0,0 -6.515,37.694 -12.223,48.939c-4.526,8.914 -26.783,32.297 -26.783,32.297l1.97,48.445c0,0 27.005,40.719 31.116,40.568c10.631,-0.395 18.904,-6.697 18.904,-6.697c0,0 -8.254,-39.799 -7.825,-39.665c1.594,-9.134 6.012,-20.816 12.375,-37.68c3.607,-9.567 8.516,-16.576 11.364,-29.783c3.194,3.96 6.913,7.561 11.148,10.11c16.814,10.119 29.868,8.941 29.868,8.941c0,0 -9.014,12.782 -17.376,31.245c-8.364,18.465 -33.164,29.85 -33.164,29.85l12.13,11.562c0,0 19.668,-6.5 36.494,-22.565c16.825,-16.065 27.62,-36.993 33.688,-39.227c6.067,-2.232 1.495,-10.501 1.495,-10.501Z" style="fill:#1e2435;fill-rule:nonzero;"/><path d="M528.016,370.855c0,0 -5.857,-1.891 -6.582,-1.982c-2.716,-0.342 -5.434,1.939 -5.434,1.939l-2.925,1.028c0,0 -2.926,0.342 -2.612,2.166c0.312,1.826 1.985,2.168 1.985,2.168c0,0 -2.195,1.711 -1.775,3.309c0.417,1.597 1.566,1.826 1.566,1.826c0,0 -0.837,0.456 -0.313,2.623c0.522,2.168 1.774,1.94 1.774,1.94c0,0 -1.044,1.254 -0.208,2.624c0.836,1.369 1.672,0.912 1.672,0.912c0,0 4.911,0.913 6.06,0.342c1.15,-0.57 13.639,-9.472 13.639,-9.472l-6.847,-9.423Z" style="fill:#b7835f;fill-rule:nonzero;"/><path d="M512.979,232.686l3.046,1.512l1.274,25.764l-11.029,16.149l5.12,2.364c0,0 -7.876,11.421 -16.938,20.481c-6.283,6.284 -19.296,13.39 -19.296,13.39c0,0 21.31,-21.14 27.962,-49.626c2.916,-12.481 8.912,-23.614 8.912,-23.614l0.949,-6.42Z" style="fill:#2d3442;fill-rule:nonzero;"/><path d="M468.996,229.831l-14.138,27.324l5.627,14.718l-6.628,0.418c2.393,33.36 21.299,40.055 21.299,40.055c0,0 -15.757,-18.117 -12.479,-35.597c1.675,-8.936 2.722,-17.534 3.773,-24.74c0.909,-6.261 4.585,-21.641 4.585,-21.641l-2.039,-0.537Z" style="fill:#2d3442;fill-rule:nonzero;"/><path d="M440.547,222.998c2.439,-0.947 5.215,-2.851 9.467,-4.47c-0.591,-0.376 -1.067,-0.657 -1.334,-0.829c-1.162,-0.746 -3.61,-0.192 -6.205,0.788c-1.544,0.581 -7.574,3.682 -8.983,4.38c2.21,1.314 5.409,0.768 7.055,0.131Z" style="fill:#3f485c;fill-rule:nonzero;"/><path d="M410.983,215.482c-1.94,-0.111 -4.017,-0.139 -6.256,-0.047l-0.06,0.001c1.768,0.095 3.857,0.117 6.316,0.046Z" style="fill:#3f485c;fill-rule:nonzero;"/><path d="M464.845,367.748c-0.417,-17.989 -9.545,-37.676 -19.011,-52.795c-0.07,-0.111 -0.134,-0.213 -0.203,-0.323c-0.236,0.073 15.527,31.79 15.944,49.78c0.419,17.988 -22.667,24.565 -22.667,24.565c0,0 22.375,12.411 22.673,12.002c-6.59,-4.475 -12.713,-9.608 -12.713,-9.608c0,0 16.396,-5.632 15.977,-23.621Z" style="fill:#3f485c;fill-rule:nonzero;"/><path d="M411.895,256.96c-27.901,-10.935 -40.319,-24.764 -46.406,-34.715c-6.088,-9.953 -6.794,-7.232 -8.448,-11.458c-1.916,-4.894 2.389,-6.219 12.95,-14.089c14.753,-10.994 47.433,-19.756 62.491,-23.375c-0.021,-0.615 0.049,-2.164 0.233,-2.745c0,0 -50.862,11.582 -70.369,26.12c-10.563,7.87 -14.867,9.195 -12.95,14.089c1.653,4.226 2.358,1.505 8.447,11.458c6.089,9.951 18.503,23.78 46.407,34.715c10.286,4.032 18.856,4.865 25.584,4.312c-5.224,-0.409 -11.214,-1.676 -17.939,-4.312Z" style="fill:#3f485c;fill-rule:nonzero;"/><path d="M572.313,339.406c8.363,-18.463 17.376,-31.245 17.376,-31.245c0,0 -10.917,-0.661 -27.73,-10.78c-4.238,-2.55 -8.295,-5.767 -13.284,-8.271c-1.969,-0.987 -6.3,-2.169 -6.798,0c1.561,1.35 4.597,6.43 10.301,10.11c16.485,10.642 29.864,8.941 29.864,8.941c0,0 -9.012,12.782 -17.376,31.245c-5.896,13.018 -13.551,17.507 -19.011,21.951c-2.285,1.86 -10.325,6.391 -10.325,6.391c0,0 28.618,-9.877 36.983,-28.342Z" style="fill:#3f485c;fill-rule:nonzero;"/><path d="M487.656,169.025l3.539,0c-0.24,-1.13 -0.517,-2.43 -0.744,-3.511c-0.528,-2.508 1.055,-7.521 1.055,-7.521c0,0 -0.25,-1.079 -2.903,3.166c-1.634,2.615 -1.705,5.863 -1.518,7.972c0.168,-0.064 0.354,-0.106 0.571,-0.106Z" style="fill:#2d313b;fill-rule:nonzero;"/><path d="M494.199,150.677c0,0 -1.596,0.862 -1.638,2.242c-0.044,1.38 0.431,3.408 0.515,3.752c0.087,0.346 -1.205,1.683 -2.112,0.734c-0.905,-0.95 -1.682,-3.063 -0.087,-5.435c1.1,-1.632 3.322,-1.293 3.322,-1.293Z" style="fill:#2d313b;fill-rule:nonzero;"/><path d="M469.045,218.814c-1.068,-2.917 -0.495,-4.003 0.45,-4.65c0.851,-0.583 2.005,-0.812 2.537,-1.699c0.908,-1.521 1.807,-12.344 0.823,-12.674c-0.492,2.364 -2.27,10.653 -3.229,12.257c-1.12,1.874 -5.395,0.083 -3.361,5.625c0.917,2.501 5.938,4.72 11.703,6.316c-3.934,-1.421 -8.23,-3.284 -8.923,-5.175Z" style="fill:#ce9d7c;fill-rule:nonzero;"/><path d="M487.78,168.742c0,0 -7.029,8.778 -7.865,10.772c-0.2,0.482 -0.311,1.122 -0.362,1.813c0.309,0.022 0.625,0.139 0.915,0.385c0.364,0.307 0.712,0.632 1.054,0.964c0.039,-0.125 0.081,-0.246 0.129,-0.363c0.836,-1.994 10.164,-12.296 10.164,-12.296c0,0 2.463,-1.073 6.579,-0.267c-6.495,-2.805 -10.614,-1.008 -10.614,-1.008Z" style="fill:#ce9d7c;fill-rule:nonzero;"/><path d="M479.846,187.102c0.216,-0.406 0.447,-0.719 0.694,-0.96c-0.275,-0.31 -0.563,-0.608 -0.853,-0.903c0.063,0.561 0.119,0.928 0.119,0.928l-9.792,8.954l0.087,0.118l0.036,0.017c0.929,0.525 1.895,0.95 2.88,1.319c0,0 6.134,-8.168 6.829,-9.473Z" style="fill:#ce9d7c;fill-rule:nonzero;"/><path d="M482.629,181.798c0,0 0.029,1.699 3.003,1.649c2.973,-0.049 7.156,-1.818 10.161,0.172c3.009,1.989 4.044,4.692 4.044,4.692c0,0 -3.04,-4.029 -8.484,-3.599c-5.446,0.43 -6.41,2.145 -8.156,1.495c-1.745,-0.651 -0.568,-4.409 -0.568,-4.409Z" style="fill:#0c1221;fill-rule:nonzero;"/><path d="M444.983,168.742c0,0 2.303,2.526 5.359,3.291c3.057,0.763 6.96,-0.475 6.96,-0.475c0,0 7.285,0.022 7.75,-0.98c0.673,-1.447 -1.123,-1.513 -1.123,-1.513c0,0 1.505,1.131 -1.171,1.513c-2.674,0.382 -10.644,-0.87 -12.744,-1.836c-2.099,-0.966 -7.289,-0.436 -8.261,0c-0.972,0.435 3.23,0 3.23,0Z" style="fill:#ce9d7c;fill-rule:nonzero;"/><path d="M501.587,196.794c-1.75,0.576 -5.06,4.265 -10.547,3.684c-3.276,-0.348 -4.027,-1.55 -4.027,-1.55c0,0 1.906,3.381 6.413,3.586c4.507,0.203 6.411,-2.844 6.411,-2.844c0,0 2.549,-3.14 1.75,-2.876Z" style="fill:#ce9d7c;fill-rule:nonzero;"/><path d="M474.624,222.083c-1.212,-1.112 -1.759,-2.855 -1.595,-4.876c0.165,-2.02 2.671,-1.405 2.671,-1.405c0,0 -1.535,-1.664 -4.102,-1.282c-2.566,0.382 -1.112,5.973 -1.112,5.973c1.345,2.423 9.428,3.941 9.428,3.941c0,0 -4.08,-1.24 -5.29,-2.351Z" style="fill:#ce9d7c;fill-rule:nonzero;"/><path d="M530.11,287.28l-16.007,-2.477l0.612,-3.957l16.008,2.477l-0.613,3.957Z" style="fill:#2d3442;fill-rule:nonzero;"/><path d="M517.029,280.846l9.028,-7.859l1.067,4.304l1.335,-1.08l2.264,7.112l-13.694,-2.477Z" style="fill:#fff;fill-rule:nonzero;"/><path d="M483.129,329.738c0,1.674 -1.295,3.03 -2.895,3.03c-1.6,0 -2.897,-1.356 -2.897,-3.03c0,-1.675 1.297,-3.031 2.897,-3.031c1.6,0 2.895,1.356 2.895,3.031Z" style="fill:#2d3442;fill-rule:nonzero;"/><path d="M485.536,259.019c0,0 0.005,0.173 0.028,0.483c0.189,2.34 1.481,12.524 9.989,15.64c9.634,3.53 21.476,-2.155 21.476,-2.155l1.992,-2.614l-3.053,0.094c0,0 -4.361,2.463 -11.339,2.52c-6.978,0.057 -10.983,-0.325 -13.654,-3.95l-5.439,-10.018Z" style="fill:#871536;fill-rule:nonzero;"/><path d="M518.586,261.31c0,0 13.26,-4.767 18.984,-3.717c5.725,1.049 10.97,2.476 10.97,2.476l9.35,-6.964c0,0 -13.621,-5.867 -18.567,-5.017c-4.947,0.85 -13.583,5.78 -17.207,8.452c-3.625,2.671 -8.013,7.345 -8.013,7.345l4.483,-2.575Z" style="fill:#871536;fill-rule:nonzero;"/><path d="M540.425,247.611c-4.296,-0.163 -6.96,1.825 -10.831,3.895c-6.857,3.667 -13.746,9.184 -21.307,11.471c-3.822,1.157 -11.844,2.142 -15.803,0.916c-2.815,-0.872 -3.677,-4.632 -4.467,-6.778c-0.378,-1.022 -0.31,-4.151 -1.007,-5.552l4.698,-6.156c0,0 -1.773,0.276 -4.695,0c-2.92,-0.276 -4.771,-2.755 -4.771,-2.755l1.631,8.012c0,0 0.207,8.602 0.709,11.408c1.269,7.11 9.379,9.507 15.061,9.507c3.769,0 6.789,-0.117 10.258,-1.578c5.458,-2.296 8.425,-6.971 13.169,-10.371c4.558,-3.268 9.981,-7.973 15.02,-10.164c2.261,-0.982 4.385,-1.037 6.753,-1.031c-1.33,-0.198 -3.141,-0.775 -4.418,-0.824Z" style="fill:#bf1f44;fill-rule:nonzero;"/><path d="M483.873,250.642l0.266,0.221c-0.083,-0.082 -0.169,-0.157 -0.266,-0.221Z" style="fill:#bf1f44;fill-rule:nonzero;"/><path d="M476.83,381.975c0,0 -7.034,13.225 -9.197,16.118c-2.163,2.894 -2.788,3.299 -2.788,3.299c0,0 3.961,-0.215 7.344,-4.386c3.383,-4.172 8.38,-14.408 8.38,-14.408l-3.739,-0.623Z" style="fill:#141a26;fill-rule:nonzero;"/><path d="M485.143,354.095c0,1.675 -1.298,3.031 -2.899,3.031c-1.598,0 -2.898,-1.356 -2.898,-3.031c0,-1.672 1.3,-3.03 2.898,-3.03c1.601,0 2.899,1.358 2.899,3.03Z" style="fill:#2d3442;fill-rule:nonzero;"/><path d="M74.814,173.905c1.75,0 3.531,0.156 5.344,0.469c1.484,0.25 2.546,0.594 3.187,1.031c0.641,0.438 0.961,1.039 0.961,1.805c0,0.484 -0.117,0.863 -0.352,1.137c-0.234,0.273 -0.742,0.605 -1.523,0.996c-0.906,0.468 -1.426,1.019 -1.559,1.652c-0.132,0.633 -0.254,3.09 -0.363,7.371c-0.047,4.141 -0.09,6.625 -0.129,7.453c-0.039,0.828 -0.137,1.633 -0.293,2.414c-0.453,2.281 -1.367,4.071 -2.742,5.367c-1.125,1.063 -2.57,1.899 -4.336,2.508c-1.766,0.61 -3.625,0.914 -5.578,0.914c-1.734,0 -3.473,-0.226 -5.215,-0.679c-1.742,-0.454 -3.254,-1.079 -4.535,-1.875c-1.063,-0.657 -1.906,-1.543 -2.531,-2.661c-0.625,-1.117 -0.938,-2.308 -0.938,-3.574c0,-1.562 0.492,-2.855 1.477,-3.879c0.984,-1.023 2.219,-1.535 3.703,-1.535c1.453,0 2.687,0.43 3.703,1.289c1.016,0.875 1.523,1.953 1.523,3.235c0,0.328 -0.093,0.875 -0.281,1.64c-0.031,0.156 -0.047,0.328 -0.047,0.516c0,0.5 0.18,0.906 0.539,1.219c0.36,0.312 0.836,0.468 1.43,0.468c1.047,0 1.891,-0.468 2.531,-1.406c0.641,-0.937 0.961,-2.172 0.961,-3.703l-0.023,-2.133l-0.047,-5.742c-0.141,-3.484 -0.246,-5.535 -0.316,-6.152c-0.071,-0.618 -0.247,-1.121 -0.528,-1.512c-0.234,-0.313 -0.441,-0.516 -0.621,-0.609c-0.18,-0.094 -0.668,-0.243 -1.465,-0.446c-0.375,-0.078 -0.695,-0.297 -0.961,-0.656c-0.265,-0.359 -0.398,-0.742 -0.398,-1.148c0,-0.844 0.332,-1.52 0.996,-2.028c0.664,-0.508 1.746,-0.918 3.246,-1.23c1.672,-0.344 3.399,-0.516 5.18,-0.516Z" style="fill:#fff;fill-rule:nonzero;"/><path d="M103.572,173.741c4.015,0 7.523,1.148 10.523,3.445c2.031,1.578 3.68,3.625 4.945,6.141c1.235,2.5 1.852,5 1.852,7.5c0,3.687 -1.219,6.984 -3.656,9.891c-2.063,2.468 -4.758,4.242 -8.086,5.32c-2.047,0.656 -4.102,0.984 -6.164,0.984c-2.703,0 -5.289,-0.562 -7.758,-1.687c-2.985,-1.36 -5.32,-3.414 -7.008,-6.164c-1.641,-2.657 -2.461,-5.586 -2.461,-8.789c0,-3.719 1.055,-7 3.164,-9.844c1.875,-2.531 4.399,-4.391 7.57,-5.578c2.125,-0.813 4.485,-1.219 7.079,-1.219Zm-2.227,6.727c-1.312,0 -2.352,0.586 -3.117,1.757c-0.594,0.875 -0.891,1.914 -0.891,3.118c0,1.765 0.36,3.808 1.078,6.129c0.719,2.32 1.625,4.378 2.719,6.175c0.484,0.766 1.082,1.375 1.793,1.828c0.711,0.454 1.434,0.68 2.168,0.68c1.188,0 2.145,-0.445 2.871,-1.336c0.727,-0.89 1.09,-2.062 1.09,-3.515c0,-1.891 -0.305,-3.93 -0.914,-6.118c-0.609,-2.187 -1.399,-4.054 -2.367,-5.601c-0.594,-0.953 -1.282,-1.703 -2.063,-2.25c-0.781,-0.547 -1.57,-0.836 -2.367,-0.867Z" style="fill:#fff;fill-rule:nonzero;"/><path d="M135.634,206.366l-3.141,0.023c-2.203,0.032 -3.812,0.079 -4.828,0.141c-0.906,0.078 -1.554,0.117 -1.945,0.117c-0.953,0 -1.711,-0.242 -2.273,-0.726c-0.547,-0.485 -0.821,-1.063 -0.821,-1.735c0,-0.437 0.102,-0.781 0.305,-1.031c0.203,-0.25 0.695,-0.641 1.477,-1.172c0.453,-0.312 0.765,-0.801 0.937,-1.465c0.172,-0.664 0.359,-2.089 0.563,-4.277c0.296,-3.406 0.445,-7.602 0.445,-12.586c0,-1.828 -0.121,-3.043 -0.363,-3.644c-0.243,-0.602 -0.809,-1.098 -1.7,-1.489c-1.031,-0.437 -1.547,-1.078 -1.547,-1.922c0,-0.687 0.309,-1.25 0.926,-1.687c0.617,-0.438 1.41,-0.656 2.379,-0.656c0.531,0 1.211,0.023 2.039,0.07c1.375,0.062 2.86,0.094 4.453,0.094c1.172,0 3.477,-0.047 6.914,-0.141c1.079,-0.031 2.055,-0.047 2.93,-0.047c2.078,0 3.754,0.168 5.027,0.504c1.274,0.336 2.379,0.902 3.317,1.699c1.531,1.297 2.297,3.032 2.297,5.203c0,1.079 -0.227,2.129 -0.68,3.153c-0.453,1.023 -1.062,1.84 -1.828,2.449c-0.547,0.438 -0.82,0.836 -0.82,1.195c0,0.391 0.328,0.719 0.984,0.985c1.281,0.515 2.445,1.383 3.492,2.601c1.078,1.266 1.617,2.852 1.617,4.758c0,2.25 -0.82,4.305 -2.461,6.164c-2.171,2.453 -5.382,3.68 -9.632,3.68c-0.579,0 -2,-0.039 -4.266,-0.117c-2.063,-0.078 -3.328,-0.125 -3.797,-0.141Zm1.617,-25.43l0,4.828c0,0.766 0.098,1.305 0.293,1.618c0.196,0.312 0.535,0.468 1.02,0.468c1.156,0 2.008,-0.355 2.554,-1.066c0.547,-0.711 0.821,-1.824 0.821,-3.34c0,-1.469 -0.281,-2.605 -0.844,-3.41c-0.562,-0.805 -1.359,-1.207 -2.391,-1.207c-0.546,0 -0.925,0.152 -1.136,0.457c-0.211,0.305 -0.317,0.855 -0.317,1.652Zm0,13.5l0,2.227c0,2.047 0.149,3.406 0.446,4.078c0.296,0.672 0.898,1.008 1.804,1.008c2.375,0 3.563,-1.391 3.563,-4.172c0,-3.469 -1.328,-5.203 -3.985,-5.203c-0.687,0 -1.164,0.148 -1.429,0.445c-0.266,0.297 -0.399,0.836 -0.399,1.617Z" style="fill:#fff;fill-rule:nonzero;"/><path d="M423.805,133.092c-2.02,0 -3.99,0.147 -5.893,0.422c-5.266,-9.194 -16.815,-15.577 -30.217,-15.577c-14.807,0 -27.355,7.794 -31.662,18.564c-1.436,-0.248 -2.923,-0.377 -4.448,-0.377c-12.069,0 -21.854,8.141 -21.854,18.186c0,10.044 9.785,18.187 21.854,18.187c6.553,0 12.43,-2.399 16.435,-6.198c5.51,3.259 12.312,5.187 19.675,5.187c6.33,0 12.248,-1.425 17.287,-3.897c5.022,3.054 11.608,4.908 18.823,4.908c15.744,0 28.505,-8.822 28.505,-19.702c0,-10.882 -12.761,-19.703 -28.505,-19.703Z" style="fill:#edeae9;fill-rule:nonzero;"/></g></svg>